<?xml version="1.0" encoding="UTF-8"?>
<svg xmlns="http://www.w3.org/2000/svg" xmlns:xlink="http://www.w3.org/1999/xlink" viewBox="0 0 150 150" width="150px" height="150px">
<g id="surface100401119">
<rect x="0" y="0" width="150" height="150" style="fill:rgb(0%,0%,0%);fill-opacity:1;stroke:none;"/>
<path style=" stroke:none;fill-rule:nonzero;fill:rgb(18.039216%,80.000001%,44.313726%);fill-opacity:1;" d="M 53.371094 140.507812 C 55.507812 139.589844 57 137.46875 57 135 L 57 118.800781 C 57 118.210938 57.046875 117.59375 57.121094 116.96875 C 57.082031 116.980469 57.042969 116.992188 57 117 C 57 117 48 117 46.199219 117 C 41.699219 117 37.800781 115.199219 36 111.601562 C 33.898438 107.699219 33 101.101562 27.601562 97.5 C 26.699219 96.898438 27.300781 96 29.101562 96 C 30.898438 96.300781 34.800781 98.699219 37.199219 102 C 39.898438 105.300781 42.601562 108 47.398438 108 C 54.859375 108 58.859375 107.625 61.265625 106.335938 C 64.066406 102.167969 67.945312 99 72 99 L 72 98.925781 C 54.996094 98.378906 44.132812 92.726562 39.074219 84 C 28.078125 84.125 18.507812 85.214844 13.042969 86.121094 C 12.871094 85.140625 12.71875 84.152344 12.589844 83.160156 C 17.980469 82.273438 27.121094 81.21875 37.625 81.019531 C 37.289062 80.191406 37 79.339844 36.753906 78.472656 C 26.21875 77.9375 17.128906 78.355469 12.191406 78.761719 C 12.132812 77.765625 12.050781 76.773438 12.039062 75.765625 C 16.984375 75.359375 25.828125 74.953125 36.09375 75.433594 C 35.855469 73.933594 35.703125 72.398438 35.703125 70.804688 C 35.703125 65.703125 37.503906 60.304688 40.804688 55.804688 C 39.304688 50.703125 37.203125 39.902344 41.402344 36.003906 C 49.503906 36.003906 55.203125 39.902344 57.902344 42.304688 C 63 40.199219 68.699219 39 75 39 C 81.300781 39 87 40.199219 91.800781 42.300781 C 94.5 39.898438 100.199219 36 108.300781 36 C 112.800781 40.199219 110.398438 51 108.898438 55.800781 C 112.199219 60.300781 114 65.398438 113.699219 70.800781 C 113.699219 72.253906 113.566406 73.652344 113.371094 75.027344 C 123.867188 74.511719 132.949219 74.925781 137.980469 75.332031 C 137.976562 76.34375 137.882812 77.332031 137.828125 78.328125 C 132.816406 77.914062 123.503906 77.488281 112.753906 78.0625 C 112.484375 79.070312 112.160156 80.050781 111.777344 81.003906 C 122.414062 81.140625 131.773438 82.171875 137.421875 83.070312 C 137.292969 84.066406 137.140625 85.054688 136.96875 86.03125 C 131.230469 85.113281 121.453125 84.039062 110.332031 83.984375 C 105.335938 92.617188 94.671875 98.25 78 98.90625 L 78 99 C 85.800781 99 93 110.699219 93 118.800781 L 93 135 C 93 137.46875 94.492188 139.589844 96.628906 140.507812 C 124.109375 131.410156 144 105.492188 144 75 C 144 36.953125 113.050781 6 75 6 C 36.949219 6 6 36.953125 6 75 C 6 105.492188 25.890625 131.410156 53.371094 140.507812 Z M 53.371094 140.507812 "/>
</g>
</svg>
