<?xml version="1.0" encoding="UTF-8"?>
<svg xmlns="http://www.w3.org/2000/svg" xmlns:xlink="http://www.w3.org/1999/xlink" viewBox="0 0 150 150" width="150px" height="150px">
<g id="surface100742858">
<rect x="0" y="0" width="150" height="150" style="fill:rgb(0%,0%,0%);fill-opacity:1;stroke:none;"/>
<path style=" stroke:none;fill-rule:nonzero;fill:rgb(18.039216%,80.000001%,44.313726%);fill-opacity:1;" d="M 75 6 C 36.953125 6 6 36.953125 6 75 C 6 86.878906 9.070312 98.5625 14.890625 108.871094 L 6.109375 140.191406 C 5.824219 141.21875 6.101562 142.324219 6.847656 143.089844 C 7.417969 143.679688 8.199219 144 9 144 C 9.238281 144 9.484375 143.96875 9.71875 143.914062 L 42.40625 135.816406 C 52.390625 141.175781 63.628906 144 75 144 C 113.046875 144 144 113.046875 144 75 C 144 36.953125 113.046875 6 75 6 Z M 109.710938 99.347656 C 108.234375 103.433594 101.152344 107.164062 97.753906 107.664062 C 94.699219 108.109375 90.835938 108.304688 86.59375 106.972656 C 84.019531 106.160156 80.722656 105.085938 76.492188 103.285156 C 58.726562 95.707031 47.121094 78.039062 46.234375 76.871094 C 45.347656 75.703125 39 67.390625 39 58.78125 C 39 50.175781 43.574219 45.941406 45.199219 44.191406 C 46.828125 42.4375 48.742188 42 49.925781 42 C 51.109375 42 52.285156 42.015625 53.320312 42.0625 C 54.410156 42.117188 55.871094 41.652344 57.308594 45.066406 C 58.785156 48.570312 62.328125 57.175781 62.765625 58.054688 C 63.210938 58.933594 63.503906 59.953125 62.914062 61.121094 C 62.328125 62.289062 62.035156 63.019531 61.144531 64.039062 C 60.257812 65.0625 59.285156 66.320312 58.488281 67.105469 C 57.601562 67.980469 56.679688 68.925781 57.710938 70.675781 C 58.742188 72.429688 62.296875 78.15625 67.566406 82.792969 C 74.332031 88.753906 80.039062 90.601562 81.808594 91.476562 C 83.578125 92.351562 84.613281 92.203125 85.648438 91.039062 C 86.679688 89.867188 90.074219 85.929688 91.253906 84.179688 C 92.433594 82.429688 93.613281 82.71875 95.242188 83.304688 C 96.867188 83.886719 105.574219 88.117188 107.347656 88.992188 C 109.117188 89.867188 110.296875 90.304688 110.742188 91.035156 C 111.1875 91.761719 111.1875 95.265625 109.710938 99.347656 Z M 109.710938 99.347656 "/>
</g>
</svg>
