<?xml version="1.0" encoding="UTF-8"?>
<svg xmlns="http://www.w3.org/2000/svg" xmlns:xlink="http://www.w3.org/1999/xlink" viewBox="0 0 50 50" width="50px" height="50px">
<g id="surface100379642">
<rect x="0" y="0" width="50" height="50" style="fill:rgb(0%,0%,0%);fill-opacity:1;stroke:none;"/>
<path style=" stroke:none;fill-rule:nonzero;fill:rgb(18.039216%,80.000001%,44.313726%);fill-opacity:1;" d="M 25 3 C 12.863281 3 3 12.863281 3 25 C 3 36.019531 11.128906 45.136719 21.714844 46.730469 L 22.863281 46.902344 L 22.863281 29.566406 L 17.664062 29.566406 L 17.664062 26.046875 L 22.863281 26.046875 L 22.863281 21.371094 C 22.863281 18.496094 23.550781 16.597656 24.695312 15.410156 C 25.839844 14.222656 27.527344 13.621094 29.878906 13.621094 C 31.757812 13.621094 32.488281 13.734375 33.183594 13.820312 L 33.183594 16.699219 L 30.738281 16.699219 C 29.351562 16.699219 28.210938 17.476562 27.617188 18.507812 C 27.027344 19.539062 26.84375 20.773438 26.84375 22.027344 L 26.84375 26.042969 L 32.964844 26.042969 L 32.421875 29.566406 L 26.84375 29.566406 L 26.84375 46.929688 L 27.976562 46.777344 C 38.714844 45.320312 47 36.125 47 25 C 47 12.863281 37.136719 3 25 3 Z M 25 5 C 36.058594 5 45 13.941406 45 25 C 45 34.730469 38.035156 42.730469 28.84375 44.535156 L 28.84375 31.566406 L 34.136719 31.566406 L 35.296875 24.042969 L 28.84375 24.042969 L 28.84375 22.027344 C 28.84375 20.988281 29.035156 20.058594 29.351562 19.5 C 29.671875 18.945312 29.980469 18.699219 30.738281 18.699219 L 35.183594 18.699219 L 35.183594 12.007812 L 34.316406 11.890625 C 33.71875 11.8125 32.347656 11.621094 29.878906 11.621094 C 27.175781 11.621094 24.855469 12.359375 23.253906 14.023438 C 21.652344 15.6875 20.859375 18.171875 20.859375 21.371094 L 20.859375 24.046875 L 15.664062 24.046875 L 15.664062 31.566406 L 20.859375 31.566406 L 20.859375 44.46875 C 11.816406 42.554688 5 34.625 5 25 C 5 13.941406 13.941406 5 25 5 Z M 25 5 "/>
</g>
</svg>
